<?xml version="1.0" encoding="utf-8"?>
<!-- Generator: Adobe Illustrator 27.1.0, SVG Export Plug-In . SVG Version: 6.00 Build 0)  -->
<svg version="1.1" id="Capa_1" xmlns="http://www.w3.org/2000/svg" xmlns:xlink="http://www.w3.org/1999/xlink" x="0px" y="0px"
	 viewBox="0 0 128 128" style="enable-background:new 0 0 128 128;" xml:space="preserve">
<style type="text/css">
	.st0{display:none;fill:none;}
	.st1{fill-rule:evenodd;clip-rule:evenodd;fill:#007540;}
	.st2{fill-rule:evenodd;clip-rule:evenodd;fill:#EBAA01;}
</style>
<path class="st0" d="M50.4,78.5c-9.9,0.4-19.5,2.7-28.5,6.9l24.2-65.7c0.7-2,1.9-3.2,3.4-3.2h29c1.5,0,2.7,1.2,3.4,3.2l24.2,65.7
	c0,0-11.6-7-28.5-7L67,45.5c-0.4-1.7-1.6-2.8-2.9-2.8c-1.3,0-2.5,1.1-2.9,2.7L50.4,78.5z M45.1,86.5c-2,6.6-0.6,15.8,4.2,20.2
	c0.1-0.2,0.1-0.5,0.2-0.7c0.5-2.7,2.9-4.6,5.7-4.5s4.3,1.5,4.7,4.7c0.2,1.1,0.2,2.3,0.2,3.5v0.4c0,2.7,0.7,5.2,2.2,7.4
	c1.4,2.2,3.4,3.9,5.7,4.9v-0.3l-0.2-0.3c-1.8-5.6-0.5-9.5,4.4-12.8l1.5-1c1.1-0.7,2.2-1.4,3.2-2.2c3.8-2.6,6.3-6.8,6.8-11.4
	c0.3-2,0.1-4-0.6-6L82.3,89l-1.6,1c-7,3.2-14.8,4.2-22.4,2.7C53.3,92,48.6,90.7,45.1,86.5z"/>
<circle class="st1" cx="64.5" cy="64.7" r="62.6"/>
<g>
	<g>
		<path class="st2" d="M7,57.9c9.7,4.4,3.6-0.9,8.4,2.3c2-2,0.5-0.6,1-1.9c7.2,3.2,10.7,2,10.3,4l-1.1,6.9C18.1,65,14.4,63.2,6.1,58
			L7,57.9L7,57.9z M58.3,44.4c1.8,2.3,3.6,4.3,6.7,4.4C65,45.1,61.1,44.6,58.3,44.4z M70,49.6c2.3,2,8.1,6,11.1,4.9
			C77.1,51.8,75.2,50,70,49.6z M49.2,30l-2.3-1.2c-1,0.7-2.3,2.8-1.2,3c2.9,0.5,6.7,3.5,8.4,3.5C56.8,34.1,50,30.8,49.2,30z
			 M58.8,37.4c2,0.8,3.9,1.7,6.2,2C65.9,44.5,59.7,38.8,58.8,37.4z M52.9,23.1c7,7.7,12.6,3.3,0-1.6c4.2-0.9,5.9,2.7,11.6,2.9
			c-0.2-0.1-1,0-1,0c2.8-1.2-0.2-0.8,3.9,1c-4.7-0.9,6.3,6.3,9,6.1c0,0-0.1,0.4,1.6,1c-1.2-3.5-5.9-2.6-5.5-4.8
			c4.9,4.8,2.7-2.3-0.9-1.6c0-0.2-2.2-1.3-3.2-1c0.7,0.3-4.2-2.6-1.9-2.3c0.1,0.1,8.5,4.2,9,4.2c4.1,2.2,9.7,6.7,11.9,4.2
			c0.2,0.9-0.2,1.1-1,1.6c0.5,0.3,0.9,1,1.9,1c1.3,0.6,1.6,2,3.5,2.3c1.5,0.7,2.7,3.1,6.1,3.9c0.9,0.8,3.3,3,6.5,2.6
			c-1.4-1.6-1.7-2.1-4.8-2.6c0,0,0.2-1-1.6-1c-1.1-0.6-4.2-5.1-5.5-3.5c-2.2-3-12.2-10.4-16.8-11.6h1c-1.6-1.8-1-0.3-1-0.3
			c-0.5-3.9,23.2,13.5,12,3.2c4.6,1.5,17.2,11.3,20.6,14.9l1.6-1.6c-4.4-3.1-4.7-2.9-4.8-3.9c0.8,0.6,5.4,3.8,6.5,4.2
			c-0.7,1.5-0.6,1.3-1.6,1.9c0.1,0.6,2.9,3.1,2.3,0.6c4.3,0.9,10.8,7.1,3.9,2.9c-0.4,0-0.1-0.1-2.3-1v1c10.4,8.2,11.7,8,5.5,7.7
			c0.9,0.5,5.6,4.4,2.9,4.8c-0.7-0.9-6.9-6.1-9.4-7.7c-3.6,4,11.1,12.7,13.9,17.4c3.5,1.5,5.5,7.6,9.7,11.3c-0.5-0.2-3.2-2-4.8-4.8
			c-0.2-1.3-0.3-1.6-2.3-1.6l-9.7-7.7l-0.1-4.1h-6.1v2.8c-3.2,0.1-3,0.2-2.9-2.9h-5.8v2.9c-3.2,0.1-3,0.3-2.9-2.9h-5.5v8.6l4.2,0.1
			L98,85.2c0,0-4.9-3.6-5.2-3.9c-3-0.4,4.2,6,4.7,6.3l-1.2,6c-5.2,3.3-5.5-17.7-6.7-19.4c2.3-0.5,6,2.3,8.7,5.5
			c-6.1-3.9-6.6-5.2-6.1-12.6c-2,0.2-5.4-1.1-4.5,2.3c-2.1,0.3-2.5,0-2.3-2.3c-2.3,0.4-5.2-1.4-4.5,2.3c-2.8,0-3.1,0.6-2.9-2.6h-6.5
			c7.1,0.3,1.6-2.7,5.2-2.9c-1.4-1.2-0.6-0.2-1.3,0c0.1-2.9,0-2.2,0-6.1c-1.3,0.2-6.4-0.7-6.8,1c-0.3,0-2.8-1.9-6.8-3.2v1.3
			c1.9-0.2,5.7,2.2,7.4,3.9c-2.7-0.1-3.6,0.8-3.2-2.6h-6.5c0.1,3.2,0.3,3-2.9,2.9v-2.9H50v8.4h5.2l-3,20.4l-4.8-30h6.5
			C53,51.2,57,45,48.4,45c-0.4-0.2-8.5-3.5-11.3-2.9c0,0,0.4-1-2.3-1c-0.2,1.3,0.5,1,1.6,1c0.1,0,3.7,2.1,11,3.9
			c-2.8-0.9-2.7,2.7-2.6,3.5h-3.9c1.4-5.3-5.2-2.8-8.4-4.2c0.1,1.1,0.1,2-1.3,1.6c-3.5-0.3-10.1-3.9-13.6-3.2c-0.3,0,0.3-1,0-1
			c-2.5,0-2.3-1.2-3.9-1.9c0.9,0.2,3.1-0.7,2.6,1c0.5,0.9,5.3,1.5,7.1,2.9c0.5,0,4.5,0.3,5.8,1.6c4.6,0.5-0.2-2.3-2.9-1.6
			c-0.2-2.2,2.7,0.4,4.2-1l1,1c2.3-1.4-7.9-4.2-10-3.9c-0.4-1.9-2.8-0.4-4.5-2.3h4.8c4,1.5,4.4,4.8,8.7,2.3c0,0,0.1,0.5,1.6,1.3v-1
			c-4.3-1.2-5.5-2.8-10.7-2.6c0.7-1.2-2.9-1-3.9-1c0.9-0.4-1.8-1.6-3.6-1.3c1.2-0.2,2.7-0.3,5.8-0.3c0.4,0-1,1,1.6,1h2.6
			c0.2,0-1.3,1,1,1c1.4,1.5,8.4,1.7,11.3,1.6c-0.8-2.8,1.1-0.6-10-4.2c2.3-0.4,3.8,1,5.8,1c0-0.9,0.2-1.5-1-1.3
			c-3.6-0.1-8.3-3.2-7.4-1.3c-1.6-2-1.2-0.9-2.3-0.6c0.4-0.2,3.7,0,12.6,0c1.2,0-1.3,1,1.6,1c0.8,0-1.1,0.8,1.9,0
			c-1.4-2-3.2,0.3-6.8-3.6c-2.8-1.8-8.2-2.2-13.6-4.9c4.6-0.8,11.2,4.9,12.3,1.3c1.5,0.3,2.7,0.2,2.3-1.6c0.4,0,4.8-0.1,5.5,0
			c0.1-0.9-0.1-1.2-1-1c4.8-1.1,1.5-0.3,5.2,0.3c2.1-0.1,0.9-0.1,3.2,1.3c0-2.3-3.8-2.6-5.8-4.2c4.4,1.2,7.7,3.8,10,4.8
			c0-2.3-4.2-2.9-4.5-4.5c8.5,5.2,3.5-0.2-2.9-2.9C42.1,19.2,52.9,22.5,52.9,23.1z M19.6,104.4c-0.3-0.4-0.9-1-1.3-1.6
			C18.8,103.2,19.3,103.8,19.6,104.4z M14.8,100.2c-1.1-1.1-1.1-1.3-1.3-1.6C14.6,99.7,14.6,99.9,14.8,100.2z M7.6,96.7
			c1.1-0.2,1.8,0.6,1.9,1.6C9,97.5,8.4,97.3,7.6,96.7z M0.6,93.1c-0.3-0.3-0.7-0.6-1.3-1C-0.7,92.2,0.1,92.2,0.6,93.1z M119,88.3
			c0.2,1.8-0.1,0.1,1,2.6C118.4,91.2,118.9,89.4,119,88.3z M125.2,88.6c-0.5-0.3-1-0.7-1.3-1.3L125.2,88.6z M140.7,85.1
			c-0.6-0.6-0.6-1.3-1.3-1.3C135.5,81,140.9,81.9,140.7,85.1z M-2,81.5c2.1,0.6,4.7,2.1,5.8,4.8C2.4,84.3-0.6,82.7-2,81.5z
			 M-3.3,80.2l0.3,0.6C-4,80.9-4.1,81-3.3,80.2z M121.6,83.8c0.6,0,1.4,0.8,1.6,2.6c-1.7-2.8-2.7-0.2-6.5-6.5
			C119.2,80.7,120.4,83.8,121.6,83.8z M126.5,80.5c-1.8-1.3-3.2-2.8-3.9-4.2C125.5,79.2,125.9,79.5,126.5,80.5z M-9.8,75.4
			c0,0,1.8,1.7,3.5,3.2c-1.3-0.2-3.2,0.3-1.6-1.3c0,0-1.2-0.5-2.6-1.6L-9.8,75.4z M-1.4,77.3c-1.3-1.1-2.4-1.2-2.6-2.6
			C-3.3,75.5-1.9,75.2-1.4,77.3z M125.5,83.8c-1.5-1-9.1-6.9-9.7-9.7L125.5,83.8z M15.4,70.2c0.9-0.3,1.8,0.7,2.3,1
			C16.3,70.3,15.2,71.9,15.4,70.2z M72.9,67.8C71.8,83.4,80,61,74.4,87.9C75.4,87,66.3,61.9,72.9,67.8z M120,66.7
			c3.8,3.7,11.9,11,14.9,16.2c0,0-4.1-5.1-4.2-5.2c-2.5,2.1-1,1.7,0.6,3.9c-0.4,0-20.3-17.3-9.7-6.5c-0.4-0.2-4.5-2.9-4.5-3.9
			c0.1-0.1-2.5-0.8-1.9-2.3C118.5,68.8,120.5,70,120,66.7z M6,64.7c0.1,0-0.8,0.2,2.3,1.9c-2.2-0.2-3.6-1.8-6.1-1.9H6z M-1.4,64.4
			c0,0,0.3,0.2,1.9,1.6c-1-0.7-2-1.2-3.2-1C-2.2,64.8-1.9,64.4-1.4,64.4z M125.8,62.5c0.6,1.2-0.8,0.9,1,1
			C126.4,63.3,126.1,63.4,125.8,62.5z M-0.4,63.1c-1.2,0.2-2-0.6-3.2-1.3C-2,62-2,62.2-0.4,63.1z M122.9,60.5c0.6,0.4,1,0.6,1.6,1
			C123,61,122.8,62.1,122.9,60.5z M102.9,58.9c-0.2,0.3-0.3,0.9-0.6,0.3L102.9,58.9z M0.9,58.6c7.5,4.4,8.6,4.6,9.4,3.9
			c-4-2.3-3.6-1.6-4.8-3.2c5.1,1.6,15.5,9.9,19.6,13.6l-5,30c0,0-5.1-6.5-8.1-6.5c0,0,0.3,0-1.6-1.3C8.8,95,9,95,9.6,96.4
			c-0.4-0.7-3-2.4-7.4-5.5c2,1,5.2,3.6,4.4,1.3c-0.3-0.4-1.2-0.3-8.9-5.5c5.9,1.9,3.3,2.6,8.1,4.2c0.3-1.5-1.7-2.1-2.3-2.9
			c3.6,2.4,5.8,3.8,8.7,6.1c3.7-1.3-0.5-1.9-0.3-3.9c-1.8,1.4-18.6-15.5-20-16.5c0.6-0.1,1,0,1.6,0c-1.6-3.5-1.4-0.5-3.2-3.5
			c3.6,1.1,4.1,1.8,11.6,6.1c4.4,2.9,5,6.5,9,6.5c0.1,1.1-0.2,1,1.3,1v-1.6c-4.8-3.7-1.4-3.3-4.8-4.8c-0.2-1.5,0.9-1.2,1-2.6
			c-1.7-2-3.8-2-6.1-4.2c3.5,0.3,7.8,6.8,13.9,7.1c-2-3.4-3.5-1.7-3.5-2.3c-0.1-1,0.3-1.9-1-1.6c0.9,0,1.5,0.2,1.3-1
			c0.9-1.1-6.7-2.8-7.4-4.8c1.1-3.2,4.5,1.5,8.1,1.9c2.8-2.2,4.8,0.9,4.5-1c-0.1-2,0.5-1.9-1.3-1.9c0,0-2.8-1.3-3.5-1.3
			c-0.8,0-2.3,1.8-3.2-1c-3.4-2.5-3.9-1.6-2.6,0.3C2.3,60.8-5.1,58,0.9,58.6z M121.3,59.9c-0.2-0.4-0.5-0.7-1-1.3
			C120.8,58.9,121.1,59.3,121.3,59.9z M85.8,59.6c-0.1-0.3-0.7-1.4,0-1.3V59.6z M27.6,56.7L27,60.6C21.7,55,24.2,57.1,27.6,56.7z
			 M-1.7,56.3c-1.7,0.3,0.4,0.3-1.3,0H-1.7z M117.1,55.7c-1.1,0.1-1,0-0.6-1C116.5,55.1,116.9,55.5,117.1,55.7z M83,57.7
			c4.4,1.5-2.1-0.2-3.5-2.6C82.1,56.9,82.5,56.4,83,57.7z M16.4,48.9c1,0.6,1.9-0.6,1.6,1C17.1,49.6,16.1,50.3,16.4,48.9z
			 M60.3,48.3c1.6-0.1,5.7,1.2,7.1,3.5C65.4,49.8,63.1,49.6,60.3,48.3z M28.6,47.9c1.5-0.1,2.4,1.2,3.9,1.6
			C31.3,49.2,27.7,50.6,28.6,47.9z M0.9,47.9c-0.3,0.2-0.7,0.1-1,0H0.9z M71.9,47.9c-0.2,0-0.6-0.1-1,0
			C71.3,47.8,71.6,47.8,71.9,47.9z M20.3,47.3c0.1,1.5,0.1,1.6-0.3,2.6c-0.1-2,0-1.7-2.3-2.3C18.6,47.6,19.2,47.8,20.3,47.3z
			 M112.3,47c0.3,0.2,0.5,0.5,1,0.6C112.5,47.5,111.6,47.9,112.3,47z M122.6,49.9c-0.6-1.5-1.2-2.3-1.6-3.2
			C123.5,48.5,122.7,48.6,122.6,49.9z M0.2,46.3c3.7-0.4,5,2.1,10,2.9c0.4,0,1.8,2.3,5.5,2.3c0.9,0.5,6.1,1.6,4.8,4.2
			C14.2,53.5,8,49,1.2,47.3C1,47.1-0.1,47.7,0.2,46.3z M105.8,46.3c0,0,4.5,2.9,5.5,4.8c-0.1-0.9,0.1-1.1-1-1
			c-0.8-1-5.8-3.4-6.5-4.8C105.9,46.7,104.5,46.3,105.8,46.3z M19.6,44.1c-0.3,0.5,2.6,1.2,3.9,1.9c-1.8,0.3-3.6-1.4-4.8-1.6
			C19.2,44.4,19.2,44.1,19.6,44.1z M105.5,42.8c-0.2,0.3-0.3,0.7-0.6,0.6C104.8,43.4,105.5,42.8,105.5,42.8z M60.9,43.4
			c-0.7-0.1-1.2-0.2-1.9,0C60.3,42.7,59.4,43,60.9,43.4z M20.9,41.1c1.6,0.5-0.1-0.3,3.2,1.3c-2.3-0.1-2,0.6-4.5-1.3H20.9z
			 M67.7,41.1c-1.1-0.4-0.2-0.2-1,0C67,41,67.4,41,67.7,41.1z M53.5,40.2c0.6,0.9-0.1,0.4-0.6,0.6L53.5,40.2z M51.2,39.9h1
			C51.9,40,51.5,40.3,51.2,39.9z M15.4,38.2c2.5,2.1-1.8,0.7-2.9,0.3C14.3,38.4,15.4,38.2,15.4,38.2z M61.8,33.1
			c2.5,1.2,3,0.7,3.9,2.3c-1-0.8-1.9-1-3.2-1l-1.9-1.3H61.8z M8,36.3c0,0,0.2,0.6,2.6,1c-1.3,0.2-4.2-0.9-4.8-1
			C7,36.3,7.2,36.3,8,36.3z M108.1,36.3h-1.3C108.1,35.8,106.7,35.9,108.1,36.3z M10.9,34c-0.4,0.7-0.5,0.1,0,1
			c-1.9-0.4-0.7-0.5-2.3,0C8.3,33.4,9.8,34.4,10.9,34z M19.3,33.7c0.1,0-0.9,0.7,3.5,1.6c-2.6,0.1-2.9-1.3-7.7-1.6
			C15.1,33.7,19.3,33.7,19.3,33.7z M80,32.1c-0.2-0.2,2.8,1.3,1.3,1.9C80.3,31.6,80.2,34.6,80,32.1z M1.5,31.8c1.6,1,2.4-0.9,2.3,1
			C1.8,31.9,1.4,33.6,1.5,31.8z M6,31.1c0,0,5.5,1.7,6.8,2.3c-3.4,0.1-6-1.8-11-2.9C5.4,30.5,2.9,31.1,6,31.1z M96.1,29.2v1
			c-0.6-0.3,0,0.5-1.3-1C96.4,30.8,95.4,29.5,96.1,29.2z M76.4,29.2c-0.2,0.3-0.3,0.7-0.6,0.6C75.8,29.9,76.4,29.2,76.4,29.2z
			 M39,29.2c-1.6,0.9-2,0.3-3.5,0C36.6,29.2,37.4,29.7,39,29.2z M51.6,28.9c0.1,0,0.2,1.4,1.6,1c1.1,1.6,0.9,0.7,1.6,0.6
			c-1.6,1-4.7-0.9-6.1-1.6C49.5,28.8,49.9,28.9,51.6,28.9z M43.5,28.9c0.2,0.6-0.7,0.2-1,0.3C42.3,28.6,43.3,29,43.5,28.9z
			 M45.1,28.9c-0.2,0-0.4-0.1-0.6-0.3L45.1,28.9z M97.1,27.6c1.6,0.6,1.8,0.7,2.3,1.9C98.2,28.2,98.2,28.6,97.1,27.6z M39,27.3
			c0.2,0,0.3,0.9,1.9,1c-2.5,0.4-1.8,0.7-4.5-0.6C37.6,27.5,39,27.3,39,27.3z M78.4,27.3c0,0,0.7,0.5,2.3,1.6
			c-1.4-1-1.9-1.1-3.2-1.6C77.8,27.3,78.2,27.3,78.4,27.3z M35.7,26.9c-1.3,0.3-1.8,0.1-2.6,0.6C33.8,27.4,35.5,27,35.7,26.9z
			 M26,25.7c-0.5,0.1-0.8,0.1-1.3,0C25,25.7,25.5,25.7,26,25.7z M81.3,22.7c0.8,0.8,0.4,0.1,0,1V22.7z M31.2,22.1
			c0.3,1.9-1.2-0.2-2.6,0C29.1,22.1,30.2,22.2,31.2,22.1z M71.3,21.4c0.7,0.4,0.3,0.3,1,0c0.1,0.9,0,1.1-1,1V21.4z M64.5,19.8
			c-1.2-0.4-1.3-0.3-1.9-1.3C63.1,18.9,63.6,19.2,64.5,19.8z"/>
	</g>
</g>
</svg>
