<?xml version="1.0" encoding="utf-8"?>
<!-- Generator: Adobe Illustrator 27.1.0, SVG Export Plug-In . SVG Version: 6.00 Build 0)  -->
<svg version="1.1" id="Capa_1" xmlns="http://www.w3.org/2000/svg" xmlns:xlink="http://www.w3.org/1999/xlink" x="0px" y="0px"
	 viewBox="0 0 174.4 99" style="enable-background:new 0 0 174.4 99;" xml:space="preserve">
<style type="text/css">
	.st0{fill-rule:evenodd;clip-rule:evenodd;fill:#EBA900;}
</style>
<g>
	<g>
		<path class="st0" d="M20.2,45.4c3.7,0.8,4.5,2.6,7.1,2.2c0.1-0.4-0.2-0.8,0-1.1c1.6,1,1.4,0.5,2.6,1.5c2.3-2.3,0.6-0.7,1.1-2.2
			c15.1,5.8,12.2-0.1,10.6,12.5c-4.3-3.1-3.5-2.1-4.3-2.1c0,0-5.8-4.1-7.8-4.1c0,0-8.1-5.9-10.4-6.7C19.1,45.4,20.2,45.4,20.2,45.4z
			 M79.3,29.9c3.8,3.9,1.7,3.8,7.7,5C87.1,30.6,82.6,30,79.3,29.9z M92.9,35.8c2.7,2.3,9.3,7,12.8,5.6C101,38.4,98.9,36.2,92.9,35.8
			z M68.8,13.2l-2.7-1.4c-1.2,0.8-2.7,3.3-1.4,3.5c3.2,0.1,10.4,6.7,10.5,2.7C75.2,17.4,69.6,13.6,68.8,13.2z M79.9,21.7
			c2.3,1,4.5,1.9,7.2,2.3v2.7C84,26,81.2,23.6,79.9,21.7z M73.1,5.2c0.6,1.6,6.7,5.8,9.7,4.8c-1.4-2.2-5-5.2-7.5-5.2
			c0,0,0.7-0.5-2.2-1.5c5.3-1,6.6,3.2,13.4,3.3c-0.2-0.1-1.1,0-1.1,0c1.3-0.5,1.5-0.7,1.5-0.7s0.1,0.3,3,1.9c-0.9,0-0.3-0.1-1.9,0
			c0.9,1,8.5,7.1,12.3,7.1c0,0-0.1,0.5,1.9,1.1v-1.1c-5.9-3.5-5.9-2.4-6.3-4.5c0.9,1.4,1.1,1.1,1.1,1.1s1.7,0.8,2.2,1.1
			c0-2.8-2-4.1-4.5-4.1C94,8,92.9,7.1,91,7.4c0,0-0.1-0.2-3.3-2.6h1.1c4.1,2,13.6,6.3,17.5,8.9c0,0.1,3.3,1.6,5.6,2.2
			c-0.1-0.5-0.3-0.9-0.7-1.5c1,0.4,1.2,0.5,1.2,0.5s-0.2-0.3,0.6-0.5v1.1c-0.3,0.2-0.7,0.4-1.1,0.7c1.4,1.6,3,0.6,3.4,2.2
			c0,0,2.2,1.5,3,1.5c0.4,0,0.4,1.1,1.9,1.1c0,0,2.5,3.3,5.2,3.3c0,0,2.6,2.6,4.8,2.6c0.5,0-0.5,0.9,2.6,0.4
			c-0.9-1.2-1.4-1.9-2.6-1.9c-0.1,0-0.1-1.1-3-1.1c0,0,0.3-1.1-1.9-1.1l-4.5-4.1c0-1-1.9,0-1.9,0s-10.2-10-12.3-10L99.5,6h1.1
			c-1.9-2.1-1.1-0.4-1.1-0.4V4.5c5.2,2.1,11.7,5.5,17.5,9.3c0.1-2.2-1.9-2.1-3.7-4.5c1.1,0.7,2,1.1,3.3,1.1c2.5,2,18.9,13.5,20.5,16
			l1.9-1.9c-5.1-3.6-5.4-3.4-5.6-4.5c0.9,0.7,6.2,4.3,7.5,4.8c-0.8,1.8-0.7,1.5-1.9,2.2c0.9,1.3,0.4,0.9,2.6,2.2
			c0.2-0.5,0.1-0.9,0-1.5h1.1c3.6,2.8,6.4,2.9,7.1,5.6c-0.4-0.3-3.1-2.2-3.7-2.2c-0.5,0-0.1-0.1-2.6-1.1v1.1
			c9.9,7.6,9.7,7.5,11.2,8.9c-0.5,0-1,0.2-1.1,0.7c-2.2-1-1.4-1.2-3.7-0.7c1.7,1.4,3.9,2.6,4.5,5.6h-1.3c-0.8-1-8-7-10.8-8.9
			c-1.5,1.3,0.8,0.5-1.1,0.4c0.2,2.5,1.5,1.8,1.5,4.5c0,0.3,10.8,10.1,10.8,10.4c0,0,4.8,3.8,4.8,4.8c0,0,6.3,4.5,6.3,7.5
			c0,0.7,2.5,3.3,4.8,5.6c-0.5-0.3-3.7-2.3-5.6-5.6c-0.2-1.6-0.4-1.9-2.6-1.9l-11.1-8.8l-0.1-4.8h-7v3.3h-3.3v-3.3H133v3.3h-3.3
			v-3.3h-6.3v9.9l4.8,0.1l-3,17.9c0,0-5.7-4.1-6-4.5h-1.1c0.4,1.4,5.3,6.6,6.5,7.3l-1.4,7c0,0.1-0.1-0.1-3.7-0.1L115.6,64
			c2.7-0.5,6.9,2.7,10,6.3c-8.2-5.9-7.1-4.3-7.1-14.5h-5.2c0,1.2,0,1.6,0,2.6c-1.4,0.1-0.8,0.1-2.6,0v-2.6h-5.2v2.6h-3.4v-3h-7.5
			l4.5-0.3c0,0,0.1-1.3,0-3c0.5,0.1,0.9,0.1,1.5,0c-1.6-1.4-0.7-0.3-1.5,0c0.1-3.4,0-2.5,0-7.1h-7.2c0,2.9-3.1-1.3-8.4-2.6V44
			c2.2-0.2,6.6,2.5,8.6,4.5h-3.7l0.1-3H81v3.3h-3.3v-3.3h-7.8v9.7h6L72.4,79l-5.6-34.6h7.5V32c-1.2-0.8-6.3-1.5-6.3-1.5
			c-0.5-0.3-9.8-4-13-3.3c0,0,0.5-1.1-2.6-1.1v1.1c3.5-0.2,3.8,1.9,14.5,4.5h-2.2c-1,1.3-0.7,4.1-0.7,4.1h-4.5c0,0,0.6-4.5-1.9-4.1
			h-4.8c-0.8-0.3-1.6-0.5-3-0.7v1.9c-4.8,0.4-12.4-4.6-17.2-3.7c-0.4,0,0.4-1.1,0-1.1c-2.9,0-2.6-1.4-4.5-2.2h3V27
			c0.5,0.4,2.6,1.9,6,1.9c0.8,0,1,1.5,2.2,1.5c0.6,0,5.2,0.4,6.7,1.9h2.6c-1.2-1.2-3.4-2.4-6-1.9v-1.1c1.6,0.1,3.1,1,4.8,0l1.1,1.1
			l0.7-0.7c-1.2-0.9-5.4-2.6-6.7-2.6c-0.9,0-0.5-1.1-4.1-1.1h-1.5c-0.1-0.9-1.3-1.7-4.1-1.5c0,0,0-0.5-1.1-1.1c6.1,0,5-0.5,10.4,2.6
			c0,2.6,5.1,0,5.2,0c0,0,0.1,0.6,1.9,1.5v-1.1c-2.4-0.8-4.3-1.9-6.7-1.9c0,0,0.8-1.1-3-1.1h-2.6c-0.3,0,0.7-1.1-1.9-1.1h-2.6
			c0.9-0.8-1.9-1.7-4.1-1.5c1.4-0.3,3.1-0.4,6.7-0.4c0.5,0-1.2,1.1,1.9,1.1h3c0.3,0-1.5,1.1,1.1,1.1c3.8,2.4,8,1.6,13,1.9v-1.1
			c-1.1-0.9,0.5-0.3-11.5-3.7c2,0,3.8-0.1,5.2,1.1h1.5V19c-4.4-0.3-7.1-1.1-9-2.2h-1.1l0.4,0.7c-1.9-2.3-1.4-1-2.6-0.7
			c0.5-0.3,4.3,0,14.5,0c1.4,0-1.5,1.1,1.9,1.1c1,0-1.2,1,2.2,0c-0.6-1.5-2.2-1.1-3.4-1.1c0,0-2.6-1.3-3.3-1.9
			c-0.3-0.7-0.5-1.1-1.1-1.1c-0.4,0-1-1.1-3.3-1.1c0,0-1.8-1.9-6.7-1.9c0,0-0.7-1.1-3-1.1c0,0-0.3-0.9-2.6-1.5
			c3.9-0.3,11.6,3,12.7,3c1.4,0,0.9-0.3,1.5-1.5c0.9,0.2,1.6,0.1,2.6,0v-2c0.5,0,5.6-0.1,6.3,0V6.6c-0.5-0.2-0.6,0.1-1.1,0l3.7-0.7
			c0,1.2,2.4,1.2,4.1,1.1c0,0,0.1,0.7,1.9,1.5V7.4c-1.7-1.2-4.4-2.3-6.7-3.7C62.2,5.1,66,8,68.6,9.3V8.1c-2.2-1.5-4.5-2.6-5.2-4.1
			c2.6,1.7,3.7,3,6,2.2c-0.1-0.1-6.1-4.1-9.3-5.6C60.7,0.8,73.1,4.5,73.1,5.2z M34.7,99c-0.4-0.5-1-1.1-1.5-1.9
			C33.8,97.7,34.4,98.3,34.7,99z M29.2,94.2c-1.3-1.3-1.3-1.5-1.5-1.9C28.9,93.6,28.9,93.8,29.2,94.2z M20.9,90.1
			c1.3-0.2,2,0.6,2.2,1.9C22.5,91.1,21.8,90.8,20.9,90.1z M12.8,86c-0.4-0.4-0.8-0.7-1.5-1.1C11.3,84.9,12.2,85,12.8,86z
			 M149.4,80.4c0.3,2.1-0.1,0.2,1.1,3h-1.1C149.1,82.3,149.2,81.6,149.4,80.4z M156.5,80.8c-0.6-0.4-1.2-0.8-1.5-1.5L156.5,80.8z
			 M174.4,76.7c-1.6-2.6-2-0.5-3.4-3.7C173,73.3,174.1,74.8,174.4,76.7z M9.8,72.6h1.1c1.5,2,4.7,2.2,5.6,5.6
			C14.9,75.8,11.4,74,9.8,72.6z M8.3,71.1l0.4,0.7H7.6L8.3,71.1z M152.4,75.2c0.7,0,1.6,1,1.9,3c-1.9-3.3-3.2-0.3-7.5-7.5
			C149.6,71.6,150.9,75.2,152.4,75.2z M158,71.5c-2-1.5-3.7-3.3-4.5-4.8C156.9,70,157.3,70.3,158,71.5z M0.8,65.5
			c0,0,2.1,1.9,4.1,3.7c-1.5-0.3-3.7,0.6-1.9-1.5c0,0-1.4-0.6-3-1.9L0.8,65.5z M10.5,67.8c-1.5-1.3-2.8-1.4-3-3
			C8.3,65.7,9.9,65.3,10.5,67.8z M156.9,75.2c-1.7-1.1-10.5-8-11.2-11.2L156.9,75.2z M29.9,59.6H31c0.9,0.7,1,0.8,1.5,1.1
			c-1.5-0.4-1.4-0.7-2.6,0C29.9,60.7,29.9,59.6,29.9,59.6z M96.2,56.8v6.9h4.5L97.9,80L93,55.7L96.2,56.8z M150.5,55.5
			c0,0,4.8,4,4.8,4.8c1.4,1.5,11.8,11.2,12.3,13.8c0,0-4.8-5.8-4.8-6c-2.9,2.4-1.2,1.9,0.7,4.5c-2.6-0.8-9.6-9-15.6-12.7
			c0.6,2.3,2.3,3.5,4.5,5.2c-0.5-0.3-5.2-3.3-5.2-4.5c0-0.3-1-0.1-2.2-1.5V58c1.2,0.1,5.5,0,5.5,0S150.5,54.7,150.5,55.5z
			 M19.1,53.2c0.1,0-0.9,0.3,2.6,2.2h-1.1c-1.9-1.4-3.5-1.8-6-2.2H19.1z M10.5,52.9c0,0,0.3,0.2,2.2,1.9c-1.2-0.8-2.3-1.3-3.7-1.1
			C9.6,53.4,9.9,52.9,10.5,52.9z M157.2,50.6c0.7,1.2,0.1,0.3,0,1.1h1.1C157.9,51.7,157.5,51.7,157.2,50.6z M11.6,51.4
			c-1.4,0.2-2.3-0.7-3.7-1.5C9.8,50.1,9.8,50.4,11.6,51.4z M153.9,48.4c0.7,0.5,1.2,0.7,1.9,1.1c-1.2-0.4-1.4-0.1-1.9,0V48.4z
			 M130.8,46.6l-0.4,0.7l-0.4-0.4L130.8,46.6z M13.1,46.2c8.6,5.1,9.9,5.4,10.8,4.5c-4.6-2.7-4.1-1.8-5.6-3.7c0,0,8.1,4.1,8.2,4.1
			c0.1,0,14.2,11.3,14.4,11.6l-5.8,34.5c0,0-5.8-7.5-9.3-7.5c0,0,0.4,0-1.9-1.5h-1.5c0.4,0.7,0.5,0.5,0.7,1.5
			c-0.5-0.8-3.5-2.8-8.6-6.3c2.9,1.4,3.1,2.4,5.6,2.6c-1.6-2.9-0.6-0.2-10.8-7.5c3.3,0.6,6,3.3,6,3.3c0,0.1,1.3,0.5,3.3,1.5v-1.1
			c-1.1-0.9-1.9-1.5-2.6-2.2c3.2,1.9,2.3,2.2,3.7,2.2L26,87c0,0,0-0.3,1.9-0.7c-1.2-3.5-1.9-0.9-2.2-3.7h-1.5c0,0-21.4-18.1-21.6-19
			c0.6-0.1,1.2,0,1.9,0c-1.9-4-1.6-0.5-3.7-4.1h1.1c2.6,2.1,4.6,2,12.3,7.1c5.1,3.3,5.7,7.5,10.4,7.5c0.3,0-0.1,0.7,0,1.1h1.5v-1.9
			c-3.2-3.5-3.3-1.8-3.3-3.7c0-1-1.8-1.7-2.2-1.9v-1.1c1.3-1.3,0.6-0.3,1.1-1.9c-1-0.7-1.4-1.9-2.6-1.9c0,0-3.7-2-4.5-3
			c1.2,0.5,2,1.1,3.3,1.1c0,0,8.7,7.9,12.7,7.1c-3.4-5.2-4.4-0.1-4.1-4.5h-1.1h1.5v-1.1l0.4-0.7c-1.3-0.3-9.5-3.1-8.9-5.9
			c1.2,0.1,1.8,0,3,0c0,0,4.1,3.3,6.3,3.3c0.5,0,2.9-2.3,5.2,0V58c-0.2-2.3,0.6-2.2-1.5-2.2c0,0-3.3-1.5-4.1-1.5
			c-0.9,0-2.6,2.1-3.7-1.1c-3-2.4-3.1-1.5-4.1-1.5c0.4,0.5,0.9,1.1,1.1,1.9c-5.8-4.1-9.5-6.7-10.5-7.4H13.1z M152,47.7
			c-0.3-0.5-0.6-0.9-1.1-1.5C151.5,46.6,151.8,47,152,47.7z M111.1,47.3c-0.2-0.5-0.4-0.9-0.4-1.5h0.4V47.3z M44,44l-0.7,4.5
			c-3.7-3.7-3.3-4.2-3.7-4.5H44z M10.1,43.6c-0.7,0.1-0.8,0.2-0.8,0.2c0,0.1,0.7,0-0.7-0.2H10.1z M147.2,42.8h-1.1l0.4-1.1
			C146.5,42.2,147,42.6,147.2,42.8z M107.8,45.1c1.2,0.1,1.2,0.3,1.9,0.7c0,0-4.6-1.7-6-3.7C106.8,44.2,107.3,43.6,107.8,45.1z
			 M31,35c0.9,0.4,1.1,0.3,1.9,0v1.1c-0.7-0.1-1.2-0.2-1.9,0V35z M81.6,34.3c1.9-0.1,6.6,1.3,8.2,4.1c-0.8-1-1.4-0.7-1.9-1.9
			C86,36.8,83.9,34.9,81.6,34.3z M45.2,33.9h1.1c1.1,0.9,2,1.3,3.3,1.9h-4.5C45.1,35.3,45.1,34.8,45.2,33.9z M13.1,33.9
			c-0.3,0.2-0.8,0.2-1.1,0H13.1z M95.1,33.9c-0.2,0-0.7-0.1-1.1,0C94.4,33.7,94.7,33.7,95.1,33.9z M35.5,33.1c0.1,1.7,0.1,1.9-0.4,3
			c-0.2-2.3,0-1.9-2.6-2.6C33.5,33.5,34.2,33.7,35.5,33.1z M141.6,32.8c0.4,0.3,0.6,0.6,1.1,0.7c-0.5,0-1,0-1.5,0L141.6,32.8z
			 M153.5,36.1c-0.7-1.8-1.4-2.6-1.9-3.7C154.5,34.5,153.7,34.7,153.5,36.1z M12.4,32c1.2,0.1,1.8,0,3,0c0,0,3.1,2.2,5.6,2.2
			c0.2,0,0.3,1.1,3,1.1c0.5,0,2.1,2.6,6.3,2.6c0,0,5,1.9,5.6,2.6v2.2c-1.3-0.5-2-1.1-3.3-1.1l-8.2-4.5c-2.4,0-7.6-4.1-10.8-4.1
			c0,0-0.2-0.3-1.1,0L12.4,32L12.4,32z M134.2,32c0,0,5.2,3.3,6.3,5.6c-0.2-0.4-0.1-0.7,0-1.1h-1.1c0,0-5.1-4.2-6.3-3.7
			c-0.4-1.5-0.1-0.7-1.1-1.9C134.3,32.5,132.6,32,134.2,32z M34.7,29.4c0.1,0,0.7,1.5,3.3,1.5c0.3,0,0.5,0.5,1.1,0.7
			c-2,0.3-4.2-1.6-5.6-1.9C34.2,29.8,34.2,29.4,34.7,29.4z M133.8,27.9l-0.4,0.7c0-0.1-0.3,0-0.4,0L133.8,27.9z M82.4,28.7
			c-0.9-0.2-1.4-0.3-2.2,0C81.6,27.8,80.6,28.2,82.4,28.7z M36.2,26.1c1.8,0.6-0.1-0.4,3.7,1.5h-3c0,0-0.5-0.3-2.2-1.5H36.2z
			 M90.2,26.1c-1.2-0.5-0.3-0.3-1.1,0C89.4,25.9,89.9,25.9,90.2,26.1z M73.8,25l0.4,0.7c-0.4-0.1-0.9-0.1-1.1,0L73.8,25z M71.2,24.6
			h1.1L71.6,25L71.2,24.6z M29.9,22.7c0,0,0.5,0.7,1.5,1.5c-2.1,0-3.6-0.8-4.8-1.1C28.7,22.9,29.9,22.7,29.9,22.7z M83.4,16.8
			c2.9,1.4,3.5,0.8,4.5,2.6c-1.1-1-2.2-1.1-3.7-1.1L82,16.8H83.4z M21.3,20.5c0,0,0.3,0.7,3,1.1c-1.5,0.2-4.8-1-5.6-1.1
			C20.2,20.5,20.4,20.5,21.3,20.5z M136.7,20.5h-1.5c0.7-0.3,0.7-0.3,0.7-0.4C136,20.1,135.9,20.2,136.7,20.5z M24.7,17.9
			c-0.5,0.8-0.5,0.2,0,1.1c-2.2-0.5-0.8-0.6-2.6,0v-1.1C23.1,18,23.7,18,24.7,17.9z M34.4,17.5c0.1,0-1.1,0.9,4.1,1.9
			c-3.1,0.2-3.3-1.5-8.9-1.9C29.5,17.5,34.4,17.5,34.4,17.5z M104.4,15.6c0.1,0,1.2,0.3,2.2,1.9c-0.3,0-0.5,0.2-0.7,0.4
			c0-0.1-0.1-0.7-0.7-1.1c-0.7-0.1-0.3,0.2-0.7,0.4C104.5,16.8,104.7,16.4,104.4,15.6z M13.9,15.3c2,0.5,0.9,0.7,2.6,0v1.1
			c-2.3-0.5-1-0.5-2.6,0C13.9,16.4,13.9,15.3,13.9,15.3z M19.1,14.5c0,0,6.3,2,7.8,2.6c-0.5,0-2.1,0-3,0c0,0-1-1.5-4.1-1.5
			c-0.3,0-3.3-1.6-5.6-1.9C18.4,13.8,15.4,14.5,19.1,14.5z M123,12.3v1.1c-0.7-0.3,0,0.6-1.5-1.1C123.3,14.1,122.2,12.6,123,12.3z
			 M100.3,12.3L99.9,13c0-0.1-0.3,0-0.4,0L100.3,12.3z M57.1,12.3c-1.8,1-2.3,0.3-4.1,0C54.3,12.3,55.2,12.8,57.1,12.3z M71.6,11.9
			c0.1,0,0.3,1.7,1.9,1.1c1.2,1.9,1,0.8,1.9,0.7c-0.3,0.1-2.2,0.4-2.6,0.4l-4.5-2.2C69.2,11.8,69.7,11.9,71.6,11.9z M62.3,11.9v0.4
			h-1.1v-0.4H62.3z M64.1,11.9c-0.3,0-0.5-0.1-0.7-0.4L64.1,11.9z M124.1,10.4c1.8,0.7,2.1,0.8,2.6,2.2
			C125.4,11.1,125.4,11.5,124.1,10.4z M57.1,10c0.2,0,0.4,1,2.2,1.1c-1.7,0.3-1.7,0.4-3.3,0.4c0,0-0.3-0.5-1.9-1.1
			C55.5,10.3,57.1,10,57.1,10z M102.5,10c0,0,0.9,0.6,2.6,1.9c-1.7-1.2-2.2-1.3-3.7-1.9C101.8,10.1,102.3,10,102.5,10z M53.3,9.7
			c-1.5,0.4-2.1,0.1-3,0.7C51.1,10.2,53,9.8,53.3,9.7z M42.2,8.2c-0.5,0.1-1,0.1-1.5,0C41,8.2,41.6,8.2,42.2,8.2z M105.9,4.8
			c1,1,0.5,0.1,0,1.1V4.8z M48.1,4.1v1.1c-1-0.6-1.6-1-3-1.1C45.7,4.1,47,4.2,48.1,4.1z M94.3,3.3c0.8,0.5,0.4,0.4,1.1,0v1.1h-1.1
			V3.3z M86.5,1.5C85.1,1,85,1.1,84.2,0C85,0.4,85.5,0.7,86.5,1.5z"/>
	</g>
</g>
</svg>
