<?xml version="1.0" encoding="utf-8"?>
<!-- Generator: Adobe Illustrator 27.1.0, SVG Export Plug-In . SVG Version: 6.00 Build 0)  -->
<svg version="1.1" id="Capa_1" xmlns="http://www.w3.org/2000/svg" xmlns:xlink="http://www.w3.org/1999/xlink" x="0px" y="0px"
	 viewBox="0 0 399.4 399.4"  xml:space="preserve">

<g>
	<path fill="#202020" d="M335.4,184c-19.5,0-38.9,0-58.3,0c0-16.4-0.5-32.4,0.2-48.3c0.4-9.6,7.6-16.5,17.7-17.4
		c12.1-1.1,24.2-0.9,36.4-1.3c2-0.1,4,0,6.4,0c0-18.3,0-36.3,0-55.3c-7.9-0.5-15.7-1-23.6-1.4c-15.3-0.8-30.5-1.6-45.7,2
		c-29.3,7-50.1,28.6-53.6,58.4c-2.1,17.9-1.5,36.2-2.1,54.3c-0.1,2.8,0,5.6,0,8.9c-8.9,0-17.2,0-25.6,0c-7.6,0-15.2,0.2-22.8,0
		c-2.9-0.1-3.9,0.9-3.9,3.6c0,18,0.1,36,0,54c0,3.6,2.1,3.5,4.6,3.5c14.2,0,28.3,0.1,42.5-0.1c4.1-0.1,5.4,1.1,5.4,5.3
		c-0.1,47.7-0.2,95.3,0,143c0,4.8-1.4,6.1-6.2,6.1c-61-0.2-122-0.1-183-0.1C8.9,399.3,0,390.4,0,375.7c0-117.5,0-235,0-352.5
		C0,9.5,9.4,0.1,23.1,0.1c117.2,0,234.3,0.1,351.5-0.1c15.1,0,24.8,10.4,24.8,24.7c-0.3,116.8-0.2,233.6-0.2,350.5
		c0,16-8.3,24.1-24.3,24.1c-31,0-62-0.1-93,0.1c-4.2,0-5.3-1.3-5.3-5.4c0.1-47.8,0.1-95.7,0-143.5c0-4.5,1.5-5.6,5.8-5.5
		c13.8,0.2,27.7,0,41.5,0.2c3,0,4.7-0.9,5-4c2.3-18.5,4.7-36.9,7-55.4C335.9,185.5,335.7,185.2,335.4,184z"/>
</g>
</svg>
