<?xml version="1.0" encoding="utf-8"?>
<!-- Generator: Adobe Illustrator 27.1.0, SVG Export Plug-In . SVG Version: 6.00 Build 0)  -->
<svg version="1.1" id="Capa_1" xmlns="http://www.w3.org/2000/svg" xmlns:xlink="http://www.w3.org/1999/xlink" x="0px" y="0px"
	 viewBox="0 0 458.8 322.3" style="enable-background:new 0 0 458.8 322.3;" xml:space="preserve">

<g>
	<path fill="#202020" d="M379.8,4.8c8.2,0.4,16.4,1.7,24.5,3.4c26.3,5.6,43,23,46.8,51.6c3.5,26.2,5.7,52.7,7,79.2
		c2,41.1-0.1,82.1-6.7,122.7c-5.2,32.1-23.6,50.5-56.1,53.5c-36,3.3-72.2,5.5-108.4,6.4c-41.4,1-82.8,0.9-124.2-0.2
		c-33.3-0.9-66.6-3-99.8-6.2c-31.7-3-51-21.4-55.3-52.9c-3.6-26.2-5.7-52.7-7-79.2c-2-41.1,0.1-82.1,6.7-122.7
		C12.6,28.3,31,9.8,63.5,6.9C99.7,3.6,136,2,172.4,0.4c19.1-0.8,38.4-0.1,57.5-0.1C229.9-0.4,329.9,2.4,379.8,4.8z M182.7,229.6
		c40.2-22.9,79.8-45.4,120.4-68.5c-40.7-23.1-80.3-45.7-120.4-68.5C182.7,138.6,182.7,183.6,182.7,229.6z"/>
</g>
</svg>
